<svg width="128" height="128" viewBox="0 0 128 128" fill="none" xmlns="http://www.w3.org/2000/svg">
  <defs>
    <linearGradient id="bg" x1="12" y1="8" x2="118" y2="122" gradientUnits="userSpaceOnUse">
      <stop stop-color="#122845"/>
      <stop offset="1" stop-color="#071321"/>
    </linearGradient>
    <linearGradient id="pin" x1="64" y1="26" x2="64" y2="100" gradientUnits="userSpaceOnUse">
      <stop stop-color="#FFF6EE"/>
      <stop offset="0.25" stop-color="#FFE5CE"/>
      <stop offset="0.56" stop-color="#FFB66F"/>
      <stop offset="1" stop-color="#FF933C"/>
    </linearGradient>
  </defs>
  <rect x="2" y="2" width="124" height="124" rx="28" fill="url(#bg)"/>
  <rect x="2" y="2" width="124" height="124" rx="28" stroke="#FFFFFF" stroke-opacity="0.1"/>
  <ellipse cx="59" cy="64" rx="31" ry="34" fill="#102039" stroke="#FFFFFF" stroke-opacity="0.07"/>
  <path d="M59 29C46.3 29 36 39.3 36 52c0 22 23 47 23 47s23-25 23-47c0-12.7-10.3-23-23-23Z" fill="url(#pin)"/>
  <path d="M42 42c2-8 9-14 18-15 7-1 14 0 19 3 4 2 8 5 10 9l-2 9H40l2-6Z" fill="#F2F4F7"/>
  <rect x="50" y="29" width="21" height="13" rx="3" fill="#0C1015"/>
  <rect x="55" y="34" width="11" height="2.3" rx="1.15" fill="#FFFFFF"/>
  <rect x="53" y="38" width="15" height="1.8" rx="0.9" fill="#D8E3EF" opacity="0.84"/>
  <path d="M73 39c6-6 12-7 16-5 6 3 9 10 9 16 0 4-1 7-3 11" stroke="#FF9F49" stroke-width="3" stroke-linecap="round"/>
  <path d="M95 61c-2 5-4 10-5 16-2 6-4 12-9 17-4 4-9 8-15 10" stroke="#FF9841" stroke-width="3" stroke-linecap="round"/>
  <circle cx="59" cy="56" r="10" fill="#10223B"/>
  <rect x="44" y="95" width="31" height="5" rx="2.5" fill="#DA9B66"/>
  <rect x="47" y="103" width="25" height="4.5" rx="2.25" fill="#8698B3"/>
</svg>
